<svg width="50" height="50" viewBox="0 0 50 50" fill="none" xmlns="http://www.w3.org/2000/svg">
<path d="M34.8571 2.28745H31.9728L34.9724 5.54253V7.09214H28.7942V5.27769H31.7935L28.7942 2.02261V0.471436H34.8571V2.28745ZM27.5692 2.28745H24.6849L27.6845 5.54253V7.09214H21.506V5.27769H24.5056L21.506 2.02261V0.471436H27.5692V2.28745ZM20.3528 2.36167H17.2403V5.2019H20.3528V7.09214H15.0278V0.471436H20.3528V2.36167Z" fill="#131313"/>
<path d="M10.7864 45.5883L7.62354 10.1145H42.3763L39.2106 45.5825L24.9786 49.5286L10.7864 45.5883Z" fill="#1572B6"/>
<path d="M25.0005 46.5124L36.5001 43.3241L39.2056 13.0151H25.0005V46.5124Z" fill="#33A9DC"/>
<path d="M25 25.8671H30.757L31.1551 21.4121H25V17.0613H35.9098L35.8055 18.2285L34.7363 30.2175H25V25.8671Z" fill="white"/>
<path d="M25.0263 37.1664L25.0071 37.1718L20.1618 35.8632L19.8517 32.3933H15.4849L16.0946 39.2246L25.0063 41.6984L25.0267 41.6925L25.0263 37.1664Z" fill="#EBEBEB"/>
<path d="M30.3873 30.0337L29.8631 35.8603L25.0107 37.17V41.6966L33.9299 39.2247L33.9955 38.4895L34.7525 30.0337H30.3873Z" fill="white"/>
<path d="M25.015 17.0613V21.4117H14.5061L14.4186 20.4339L14.2205 18.2285L14.1162 17.0613H25.015ZM24.9998 25.8675V30.2183H20.2158L20.1287 29.2406L19.9303 27.0347L19.826 25.8675H24.9998Z" fill="#EBEBEB"/>
</svg>
