<svg width="50" height="50" viewBox="0 0 50 50" fill="none" xmlns="http://www.w3.org/2000/svg">
<path d="M25 0C10.9375 0 0 10.9375 0 25C0 41.4062 14.8438 48.4375 17.1875 48.4375C18.75 48.4375 18.75 47.6562 18.75 46.875V42.9688C13.2812 44.5312 10.9375 41.4062 10.1562 39.0625C10.1562 39.0625 10.1562 38.2812 8.59375 36.7188C7.8125 35.9375 4.6875 34.375 7.8125 34.375C10.1562 34.375 11.7188 37.5 11.7188 37.5C14.0625 40.625 17.1875 39.8438 18.75 39.0625C18.75 37.5 20.3125 35.9375 20.3125 35.9375C14.0625 35.1562 9.375 32.8125 9.375 24.2188C9.375 21.0938 10.1562 18.75 11.7188 17.1875C11.7188 17.1875 10.1562 14.0625 11.7188 10.1562C11.7188 10.1562 15.625 10.1562 18.75 13.2812C21.0938 11.7188 28.9062 11.7188 31.25 13.2812C34.375 10.1562 38.2812 10.1562 38.2812 10.1562C39.8438 15.625 38.2812 17.1875 38.2812 17.1875C39.8438 18.75 40.625 21.0938 40.625 24.2188C40.625 32.8125 35.1562 35.1562 29.6875 35.9375C30.4688 36.7188 31.25 38.2812 31.25 40.625V46.875C31.25 47.6562 31.25 48.4375 32.8125 48.4375C35.1562 48.4375 50 41.4062 50 25C50 10.9375 39.0625 0 25 0Z" fill="black"/>
</svg>
