<svg width="50" height="50" viewBox="0 0 50 50" fill="none" xmlns="http://www.w3.org/2000/svg">
<path d="M10.8806 45.4508L7.73877 10.2122H42.2614L39.1165 45.4454L24.979 49.3645L10.8806 45.4508Z" fill="#E44D26"/>
<path d="M25 46.3688L36.4234 43.2016L39.1113 13.0938H25V46.3688Z" fill="#F16529"/>
<path d="M25.0002 26.1633H19.2811L18.8865 21.7372H25.0002V17.4153H14.1631L14.2662 18.575L15.3287 30.4848H25.0002V26.1633ZM25.0002 37.3872L24.9811 37.3922L20.1682 36.0922L19.8604 32.6458H15.5217L16.1271 39.4317L24.9803 41.8895L25.0002 41.8836V37.3872Z" fill="#EBEBEB"/>
<path d="M10.9507 0.635498H13.1468V2.80581H15.1562V0.635498H17.3526V7.20659H15.1562V5.0062H13.1472V7.20659H10.9507V0.635498ZM20.2405 2.81479H18.3069V0.635498H24.3714V2.81479H22.437V7.20659H20.2405V2.81479ZM25.3339 0.635498H27.6237L29.0327 2.94448L30.4401 0.635498H32.7312V7.20659H30.5433V3.94956L29.0327 6.28589H28.9944L27.4827 3.94956V7.20659H25.3335V0.635498H25.3339ZM33.8245 0.635498H36.0214V5.03472H39.1101V7.20698H33.8245V0.635498Z" fill="black"/>
<path d="M24.9854 26.1633V30.4848H30.3072L29.8057 36.0899L24.9854 37.3911V41.8872L33.8455 39.4317L33.9103 38.7012L34.926 27.3235L35.0314 26.1633H33.8666H24.9854ZM24.9854 17.4153V21.7372H35.4248L35.5111 20.7657L35.7084 18.575L35.8119 17.4153H24.9854Z" fill="white"/>
</svg>
