<svg width="50" height="50" viewBox="0 0 50 50" fill="none" xmlns="http://www.w3.org/2000/svg">
<path fill-rule="evenodd" clip-rule="evenodd" d="M25 3.125C29.3265 3.125 33.5558 4.40795 37.1531 6.8116C40.7504 9.21526 43.5542 12.6317 45.2099 16.6288C46.8655 20.6259 47.2987 25.0243 46.4547 29.2676C45.6106 33.5109 43.5272 37.4087 40.468 40.468C37.4087 43.5272 33.5109 45.6106 29.2676 46.4547C25.0243 47.2987 20.6259 46.8655 16.6288 45.2099C12.6317 43.5542 9.21526 40.7504 6.8116 37.1531C4.40795 33.5558 3.125 29.3265 3.125 25C3.125 19.1984 5.42968 13.6344 9.53204 9.53204C13.6344 5.42968 19.1984 3.125 25 3.125Z" fill="#CC6699"/>
<path d="M38.7217 12.4875C37.7311 8.60311 31.2889 7.33124 25.1921 9.49061C21.3737 10.7735 17.8459 12.797 14.8108 15.4453C11.453 18.5859 10.9171 21.3203 11.1374 22.4625C11.9186 26.4937 17.4389 29.1281 19.7092 31.0828V31.0937C19.0405 31.4234 14.1405 33.9062 12.9905 36.4375C11.7811 39.1125 13.1827 41.0312 14.1124 41.2891C15.5082 41.6251 16.9742 41.5157 18.3047 40.9763C19.6352 40.4369 20.7634 39.4944 21.5311 38.2812C22.166 37.2985 22.5633 36.1813 22.6913 35.0184C22.8193 33.8554 22.6746 32.6786 22.2686 31.5812C23.3619 31.3019 24.499 31.2366 25.6171 31.3891C29.4546 31.8375 30.2077 34.2328 30.0639 35.2359C29.9963 35.593 29.8526 35.9313 29.6426 36.2279C29.4326 36.5245 29.1611 36.7724 28.8467 36.9547C28.578 37.1219 28.4952 37.1781 28.5186 37.3031C28.5514 37.4828 28.6749 37.4766 28.9046 37.4375C29.4812 37.2559 29.9894 36.9038 30.362 36.4277C30.7347 35.9516 30.9543 35.3737 30.9921 34.7703C31.0842 32.4266 28.8327 29.7922 24.8452 29.8594C23.687 29.8253 22.5312 29.9837 21.4249 30.3281L21.2561 30.1406C18.7905 27.5109 14.2342 25.65 14.4264 22.1141C14.4967 20.8281 14.9436 17.4437 23.1764 13.3375C29.9264 9.97343 35.3296 10.9 36.2639 12.9515C37.5983 15.8828 33.3764 21.3281 26.3671 22.1141C25.5923 22.2713 24.7921 22.2521 24.0258 22.0579C23.2595 21.8637 22.5468 21.4995 21.9405 20.9922C21.5717 20.5859 21.5171 20.5687 21.3796 20.6437C21.1561 20.7672 21.2983 21.1266 21.3796 21.3391C21.648 21.8227 22.0103 22.2479 22.4453 22.5897C22.8802 22.9316 23.379 23.1831 23.9124 23.3297C26.6683 23.9276 29.5426 23.6434 32.128 22.5172C36.3796 20.8781 39.6952 16.3078 38.7217 12.4875ZM20.653 32.2859C20.9618 33.356 20.9461 34.4936 20.6077 35.5547C20.5712 35.6651 20.5311 35.7745 20.4874 35.8828C20.4436 35.9911 20.3962 36.0953 20.3452 36.1953C20.0805 36.7323 19.7401 37.2285 19.3342 37.6687C18.0639 39.0547 16.2874 39.5797 15.5264 39.1375C14.7046 38.6609 15.1155 36.7062 16.5889 35.1484C17.7215 34.0293 19.0267 33.0998 20.4546 32.3953L20.653 32.2859Z" fill="white"/>
</svg>
